# xmcd CD database file
# Copyright (C) 1993-1998 Ti Kan
#
# Track frame offsets:
#	150
#	21870
#	38462
#	60799
#	77706
#	107183
#	126628
#	145190
#	162811
#	184148
#
# Disc length: 2765 seconds
#
# Revision: 1
# Processed by: cddbd v1.4b41PL1 Copyright (c) Steve Scherf et al.
# Submitted via: CDValet v3.31 - Copyright (c) 1997 Greg Leichner
#
DISCID=7c0acb0a
DTITLE=Crystal Lyons - Living Waters
DYEAR=1900
DGENRE=
TTITLE0=The Lord Almighty reigns
TTITLE1=Flower in the rain
TTITLE2=Legacy to the Cherokee
TTITLE3=Can't live without You
TTITLE4=Draw me close
TTITLE5=Born to live
TTITLE6=Stand
TTITLE7=On my knees
TTITLE8=I surrender all
TTITLE9=I pledge allegiance to the Lamb
EXTD=Vocals recorded at Cedar Creek Recording 5012 Brighton Rd 
EXTD=Austin TX\nEngineered by Fred Remmer \nProduced by Ray and C
EXTD=rystal Lyons\nCowboy Stuff Ministries\nP O Box 838\nCrocke
EXTD=tt TX 75835-0838\n
EXTT0=
EXTT1=
EXTT2=
EXTT3=
EXTT4=
EXTT5=
EXTT6=
EXTT7=
EXTT8=
EXTT9=
PLAYORDER=
